<?xml version="1.0" encoding="UTF-8"?>
<svg id="Calque_2" data-name="Calque 2" xmlns="http://www.w3.org/2000/svg" viewBox="0 0 180.73 112.93">
  <defs>
    <style>
      .cls-1, .cls-2 {
        fill: #2f2f2f;
      }

      .cls-1, .cls-3, .cls-4 {
        stroke-width: 0px;
      }

      .cls-2 {
        font-family: Montserrat-Medium, Montserrat;
        font-size: 7.19px;
        font-weight: 500;
      }

      .cls-5 {
        letter-spacing: -.02em;
      }

      .cls-6 {
        letter-spacing: -.01em;
      }

      .cls-3 {
        fill: #fff;
      }

      .cls-7 {
        letter-spacing: 0em;
      }

      .cls-8 {
        letter-spacing: 0em;
      }

      .cls-4 {
        fill: #f7f9f7;
      }

      .cls-9 {
        letter-spacing: 0em;
      }
    </style>
  </defs>
  <g id="Calque_1-2" data-name="Calque 1">
    <g>
      <g>
        <text class="cls-2" transform="translate(80.06 93.94)"><tspan x="0" y="0">SMA</tspan><tspan class="cls-7" x="16.59" y="0">R</tspan><tspan class="cls-9" x="21.74" y="0">T </tspan><tspan class="cls-6" x="27.9" y="0">L</tspan><tspan class="cls-9" x="32.07" y="0">OCKER NE</tspan><tspan class="cls-8" x="71.03" y="0">T</tspan><tspan class="cls-5" x="75.19" y="0">W</tspan><tspan x="83.13" y="0">ORK</tspan></text>
        <g>
          <path class="cls-1" d="M89.45,82.64h-4.24c-.4,0-.77.25-.91.63-.28.6-.5,2.01-1.42,1.93,0,0-2.87,0-2.87,0-.71,0-1.18-.72-.9-1.37l5.57-12.73c.16-.36.51-.59.9-.59h3.59c.39,0,.74.23.9.59l5.57,12.73c.28.65-.19,1.37-.9,1.37h-2.95c-1.45.02-.88-2.58-2.33-2.56ZM88.24,77.74c-.32-.83-1.5-.83-1.83,0-.51,1.74,2.34,1.74,1.83,0Z"/>
          <path class="cls-1" d="M102.18,75.5c.22,2.94,5.91-.42,6.13,2.52.04,1,.12,2.45-1.26,2.48,0,0-3.61,0-3.61,0-.7,0-1.26.56-1.26,1.26v2.18c.02,1.79-2.62,1.15-3.69,1.26-.7,0-1.26-.56-1.26-1.26.78-15.95-3.94-13.24,10.68-13.43,1.38.02,1.3,1.48,1.26,2.48-.12,2.98-6.87-.46-6.99,2.52Z"/>
          <path class="cls-1" d="M116.52,81.51c-1.94.11.18,3.58-1.75,3.69h-3.2c-.48,0-.88-.39-.88-.88v-12.94c0-.48.39-.88.88-.88,4.71-.04,13.04-.93,12.89,5.54.15,3.65-3.11,4-2.25,5.38,0,0,1.63,2.4,1.63,2.4.4.58-.02,1.37-.73,1.37h-3.16c-1.21.02-2.21-3.72-3.43-3.69ZM117.44,74.33c-.68-.03-1.82-.09-1.81.88.08.74-.37,2.59.88,2.56,0,0,.93,0,.93,0,2.7.18,2.7-3.62,0-3.44Z"/>
          <path class="cls-1" d="M128.45,70.51c1.37,0,2.48,1.11,2.48,2.48v9.74c0,1.37-1.11,2.48-2.48,2.48-1.37,0-2.48-1.11-2.48-2.48v-9.74c0-1.37,1.11-2.48,2.48-2.48Z"/>
          <path class="cls-1" d="M146.92,81.15c.44,5.29-9.7,3.89-13.39,4.05-.6,0-1.09-.49-1.09-1.09v-12.51c0-.6.49-1.09,1.09-1.09,3.56.1,13.12-1.05,12.7,3.84,0,.88-.29,1.66-.85,2.28-1.2,1.59,1.71,1.86,1.54,4.52ZM137.31,75.06c0,1.25,1.44,1.11,2.31,1.09,1.11,0,1.62-.38,1.62-1.09s-.5-1.09-1.62-1.09c-.87-.02-2.31-.16-2.31,1.09ZM141.93,80.58c0-.76-.55-1.15-1.64-1.15-.99.06-3.09-.41-2.98,1.22,0,1.49,2.06,1.02,2.98,1.09,1.09,0,1.64-.4,1.64-1.15Z"/>
          <path class="cls-1" d="M175.79,84.68c-.69-.94-1.74-3.62-3.15-1.91,0,0-1.2,1.9-1.2,1.9-.42.94-3.02.39-3.78.53-.92,0-1.46-1.04-.92-1.79l3.56-4.97c.28-.39.28-.92,0-1.31l-3.41-4.84c-.53-.75,0-1.78.93-1.78h2.78c1.59-.04,2.09,4.33,4.03,2.28,0,0,1.17-1.77,1.17-1.77.43-.89,2.72-.38,3.46-.51.92,0,1.46,1.04.92,1.79l-3.34,4.64c-.28.39-.28.92,0,1.32l3.67,5.15c.53.75,0,1.79-.92,1.79-.77-.16-3.36.42-3.81-.52Z"/>
          <rect class="cls-1" x="148.44" y="70.51" width="16.58" height="14.69" rx="3.09" ry="3.09"/>
          <path class="cls-4" d="M160.21,76.86c-1.74,0-5.22,0-6.96,0-.3,0-.19.44-.21.63,0,0,0,1.81,0,1.81,0,.12.1.22.22.22h3.39c.12,0,.22-.1.22-.22v-1.6h3.34c.3,0,.2-.45.21-.63,0-.12-.1-.21-.21-.21Z"/>
        </g>
      </g>
      <g>
        <path class="cls-1" d="M28.07,21.13c4.6-3.81,15.15-11.62,21.27-9.18-7.33-1.95-15.59,5.22-21,9.49l-.27-.31h0Z"/>
        <path class="cls-1" d="M42.31,7.17c4.46.41,9.04.57,13.32,2.01.37.17.8.35,1.02.73,2.47,6.3,8.67,21.4,16.17,22.08-8.44-1.58-13.23-14.8-16.38-21.9-.17-.35-.57-.5-.91-.65-4.24-1.37-8.82-1.5-13.24-1.86,0,0,.02-.41.02-.41h0Z"/>
        <path class="cls-1" d="M65.04,31.66c.28.03,13.83,1.58,14.11,1.61-2.49,2.83-11.22,11.43-10.77,14.92-.39-3.65,7.91-11.91,10.44-14.91l.07.2-13.89-1.41.04-.41h0Z"/>
        <path class="cls-1" d="M79.06,38.43c-6.6,8.44-13.92,19.66-15.39,30.41,1.63-11.47,8.27-21.57,15.08-30.67l.32.26h0Z"/>
        <rect class="cls-1" x="71.55" y="29.68" width="10.71" height="10.71" rx="1" ry="1"/>
        <g>
          <path class="cls-3" d="M77.34,35.68h-2.23c-.19.05-.05-1.12-.09-1.19-.09-.2,2.28-.05,2.32-.09.19-.05.05,1.12.09,1.19,0,.05-.04.09-.09.09Z"/>
          <path class="cls-3" d="M79.59,34.4h-4.5c-.12,0-.05.27-.07.33-.01.2,4.5,0,4.57.07.12,0,.05-.27.07-.33,0-.04-.03-.07-.07-.07Z"/>
        </g>
        <path class="cls-1" d="M13.37,5.37c1.75.39,3.86-.89,5.28-1.83-1.54,1.15-3.39,2.53-5.43,2.22l.15-.38h0Z"/>
        <path class="cls-1" d="M28.35,2.91l3.29,3.02-.1-.03c2.33-.25,4.69-.26,7,.12-2.31-.3-4.67-.21-6.96.12,0,0-.06,0-.06,0-.05-.04-3.39-2.89-3.44-2.93l.27-.31h0Z"/>
        <rect class="cls-1" x="46.48" y="8.37" width="10.71" height="10.71" rx="1" ry="1"/>
        <g>
          <path class="cls-3" d="M52.12,14.57h-2.23c-.19.05-.05-1.12-.09-1.19-.09-.2,2.28-.05,2.32-.09.19-.05.05,1.12.09,1.19,0,.05-.04.09-.09.09Z"/>
          <path class="cls-3" d="M54.37,13.3h-4.5c-.12,0-.05.27-.07.33-.01.2,4.5,0,4.57.07.12,0,.05-.27.07-.33,0-.04-.03-.07-.07-.07Z"/>
        </g>
        <path class="cls-1" d="M20.38,97.28c3.7-3.19,3.22-2.33,8.34-2.77,1.42-.12,3.41-1.84,9.1-3.26,0,0,7.31-4.01,8.12-4.77,0,0,.78-1.22-.29-2.65-1.07-1.44-10.83-10.84-10.83-10.84l-1.17-8.34h1.43l1.47,7.92s9.26,7.58,10.91,9.96c1.27,1.83.28-14.44.54-13.76l2.03.1v13.32s-.02.36.68,0c1.17-.6,9.39-6.4,9.39-6.4,0,0,.89-.79,1.42-2.52-.73-1.24-.08-2.19,1.15-3.51l1.78.47-1.99,5.66-11.33,8.29c-.58,4.59.88,3.39,6.99,6.86,0,0,6.35-.04,10.17,3.61l4.13.18,3.6,2.45c-3.86-1.71-3.11-1.63-7.35-1.59-.51.27,1.98,2.75,2.33,3.18-5.32-2.04-.07-3.14-11.4-5.61,0,0-.62.34.37,1.92,1.77,4.62,4.58,1.37,8.63,7.6,0,0-2.24-2.61-5.38-3.02-.58,1.6,1.8,3.23-.82,6.02.51-9.22-2.71-4.71-5.33-12.54l-5.56-2.7c-1.36,7.86,7.64,8.74,7.23,15.86,0,0-1.58-4.39-3.64-5.58,0,0-.71-.66-.59,1.76l.09,5.45s-2.89,3.37-2.97,4.9c0,0-1.17-.53,1.53-5.31l-.07-7.6-3.41-5.1s-.14-.39-.48.02c0,0-3.18,3.62-3.43,4.1,0,0-.48,4.81-.3,5.81,0,0-.87,2.22-1.53,2.56l-.39,4.69s-.59-4.9-.5-5.24c0,0,.85-1.74,1.03-2.24l-.05-3.89s.07-1.19-.57-.94c0,0-1.92,1.14-2.11,1.78,0,0-.53,1.51-.92,1.81-1.08,1.03-2.58.13-3.91,3.71,0,0-.71-1.65,1.24-3.62,2.95-1.17,1.45-2.77,4.14-4.37,0,0,2.77-1.51,5.29-4.81l.09-4.44c-9.77,1.52-4.82,9.29-14.32,11.53,0,0-1.76.57-2.45,2.17-.6-3.8,5.47-1.67,7.46-9.29,0,0,.69-1.49.02-1.01,0,0-3.25,1.12-5.65,1.76-3.15.12-2.07,3.14-6.86,4.9,0,0,1.74-1.81,2.81-3.39,0,0,.57-.55-.14-.64l-4.1.05-3.67,1.33Z"/>
        <path class="cls-1" d="M47.74,60.55c3.42-3.96,7.45-7.5,12.17-9.82-4.63,2.43-8.55,6.06-11.85,10.08l-.32-.26h0Z"/>
        <path class="cls-1" d="M31.56,56.41c-2.59-3.22-2.12-8.07,1.33-10.47-3.27,2.44-3.64,7.16-1.01,10.21,0,0-.32.26-.32.26h0Z"/>
        <path class="cls-1" d="M19.89,38.51c4.74,1.18,10.17,3.72,11.83,8.66-1.8-4.88-7.17-7.2-11.91-8.26l.08-.4h0Z"/>
        <path class="cls-1" d="M12.56,40.55c-3.08-2.61-7.11-6.72-7.63-10.86.84,4.43,4.55,7.79,7.88,10.54l-.25.33h0Z"/>
        <path class="cls-1" d="M1.63,20.92c.78-3.72,2.76-10.45,6.92-11.45-4.5,1.64-5.6,7.35-6.52,11.52l-.41-.07h0Z"/>
        <path class="cls-1" d="M9.49,25.72c3.95-3.69,10.1-6.91,14.54-2.15,2.19,2.41,3.9,5.22,6.45,7.28,6.91,5.22,15.19,8.34,23.07,11.79-7.92-3.4-16.24-6.46-23.2-11.63-2.57-2.04-4.33-4.86-6.52-7.24-4.29-4.59-10.29-1.34-14.05,2.24l-.29-.29h0Z"/>
        <path class="cls-1" d="M39.44,48.17c.54,3.46.72,8.16,3.91,10.27,4.87,2.75,9.94,5.13,14.96,7.59-5.06-2.39-10.17-4.7-15.09-7.38-.83-.42-1.45-1.1-1.9-1.89-1.43-2.62-1.93-5.62-2.3-8.55l.41-.04Z"/>
        <path class="cls-1" d="M48.02,31.29c5.27,4.14,13.49,11.32,15.65,17.7-2.87-7.08-10.02-12.74-15.89-17.37l.24-.33h0Z"/>
        <path class="cls-1" d="M25.5,9.32c6.99,6.63,14.04,13.3,21.91,18.89-7.95-5.49-15.1-12.06-22.19-18.6l.28-.3h0Z"/>
        <path class="cls-1" d="M34.02,33.95c.69.06,1.41-.07,2.08-.24,1.13-.31,2.28-.85,3.26-1.47,4.94-3.14,8.3-8.14,11.26-13.1-2.63,4.62-5.64,9.25-9.89,12.51-1.94,1.45-4.26,2.79-6.76,2.71,0,0,.06-.41.06-.41h0Z"/>
        <rect class="cls-1" x="56.56" y="26.66" width="10.71" height="10.71" rx="1" ry="1"/>
        <rect class="cls-1" x="10.71" y="31.86" width="10.71" height="10.71" rx="1" ry="1"/>
        <rect class="cls-1" x="30.86" y="40.02" width="10.71" height="10.71" rx="1" ry="1"/>
        <rect class="cls-1" x="18.79" y="16.17" width="10.71" height="10.71" rx="1" ry="1"/>
        <rect class="cls-1" x="42.84" y="23.22" width="10.71" height="10.71" rx="1" ry="1"/>
        <rect class="cls-1" x="44.58" y="40.41" width="10.71" height="10.71" rx="1" ry="1"/>
        <rect class="cls-1" x="43.31" y="59.09" width="10.71" height="10.71" rx="1" ry="1"/>
        <rect class="cls-1" x="26.2" y="28.01" width="10.71" height="10.71" rx="1" ry="1"/>
        <rect class="cls-1" x="57.3" y="60.68" width="10.71" height="10.71" rx="1" ry="1"/>
        <rect class="cls-1" x="58.31" y="45.95" width="10.71" height="10.71" rx="1" ry="1"/>
        <rect class="cls-1" x="29.31" y="54.6" width="10.71" height="10.71" rx="1" ry="1"/>
        <rect class="cls-1" y="19.29" width="10.71" height="10.71" rx="1" ry="1"/>
        <g>
          <path class="cls-3" d="M62.99,66.67h-2.23c-.19.05-.05-1.12-.09-1.19-.09-.2,2.28-.05,2.32-.09.19-.05.05,1.12.09,1.19,0,.05-.04.09-.09.09Z"/>
          <path class="cls-3" d="M65.24,65.39h-4.5c-.12,0-.05.27-.07.33-.01.2,4.5,0,4.57.07.12,0,.05-.27.07-.33,0-.04-.03-.07-.07-.07Z"/>
        </g>
        <g>
          <path class="cls-3" d="M49.01,64.87h-2.23c-.19.05-.05-1.12-.09-1.19-.09-.2,2.28-.05,2.32-.09.19-.05.05,1.12.09,1.19,0,.05-.04.09-.09.09Z"/>
          <path class="cls-3" d="M51.26,63.59h-4.5c-.12,0-.05.27-.07.33-.01.2,4.5,0,4.57.07.12,0,.05-.27.07-.33,0-.04-.03-.07-.07-.07Z"/>
        </g>
        <g>
          <path class="cls-3" d="M34.67,60.59h-2.23c-.19.05-.05-1.12-.09-1.19-.09-.2,2.28-.05,2.32-.09.19-.05.05,1.12.09,1.19,0,.05-.04.09-.09.09Z"/>
          <path class="cls-3" d="M36.92,59.32h-4.5c-.12,0-.05.27-.07.33-.01.2,4.5,0,4.57.07.12,0,.05-.27.07-.33,0-.04-.03-.07-.07-.07Z"/>
        </g>
        <g>
          <path class="cls-3" d="M36.5,45.76h-2.23c-.19.05-.05-1.12-.09-1.19-.09-.2,2.28-.05,2.32-.09.19-.05.05,1.12.09,1.19,0,.05-.04.09-.09.09Z"/>
          <path class="cls-3" d="M38.75,44.49h-4.5c-.12,0-.05.27-.07.33-.01.2,4.5,0,4.57.07.12,0,.05-.27.07-.33,0-.04-.03-.07-.07-.07Z"/>
        </g>
        <g>
          <path class="cls-3" d="M50.21,46.4h-2.23c-.19.05-.05-1.12-.09-1.19-.09-.2,2.28-.05,2.32-.09.19-.05.05,1.12.09,1.19,0,.05-.04.09-.09.09Z"/>
          <path class="cls-3" d="M52.46,45.13h-4.5c-.12,0-.05.27-.07.33-.01.2,4.5,0,4.57.07.12,0,.05-.27.07-.33,0-.04-.03-.07-.07-.07Z"/>
        </g>
        <g>
          <path class="cls-3" d="M64.2,52.18h-2.23c-.19.05-.05-1.12-.09-1.19-.09-.2,2.28-.05,2.32-.09.19-.05.05,1.12.09,1.19,0,.05-.04.09-.09.09Z"/>
          <path class="cls-3" d="M66.45,50.91h-4.5c-.12,0-.05.27-.07.33-.01.2,4.5,0,4.57.07.12,0,.05-.27.07-.33,0-.04-.03-.07-.07-.07Z"/>
        </g>
        <g>
          <path class="cls-3" d="M62.29,32.7h-2.23c-.19.05-.05-1.12-.09-1.19-.09-.2,2.28-.05,2.32-.09.19-.05.05,1.12.09,1.19,0,.05-.04.09-.09.09Z"/>
          <path class="cls-3" d="M64.54,31.43h-4.5c-.12,0-.05.27-.07.33-.01.2,4.5,0,4.57.07.12,0,.05-.27.07-.33,0-.04-.03-.07-.07-.07Z"/>
        </g>
        <g>
          <path class="cls-3" d="M48.11,29.11h-2.23c-.19.05-.05-1.12-.09-1.19-.09-.2,2.28-.05,2.32-.09.19-.05.05,1.12.09,1.19,0,.05-.04.09-.09.09Z"/>
          <path class="cls-3" d="M50.36,27.83h-4.5c-.12,0-.05.27-.07.33-.01.2,4.5,0,4.57.07.12,0,.05-.27.07-.33,0-.04-.03-.07-.07-.07Z"/>
        </g>
        <g>
          <path class="cls-3" d="M31.72,34.05h-2.23c-.19.05-.05-1.12-.09-1.19-.09-.2,2.28-.05,2.32-.09.19-.05.05,1.12.09,1.19,0,.05-.04.09-.09.09Z"/>
          <path class="cls-3" d="M33.97,32.77h-4.5c-.12,0-.05.27-.07.33-.01.2,4.5,0,4.57.07.12,0,.05-.27.07-.33,0-.04-.03-.07-.07-.07Z"/>
        </g>
        <g>
          <path class="cls-3" d="M16.06,37.57h-2.23c-.19.05-.05-1.12-.09-1.19-.09-.2,2.28-.05,2.32-.09.19-.05.05,1.12.09,1.19,0,.05-.04.09-.09.09Z"/>
          <path class="cls-3" d="M18.31,36.29h-4.5c-.12,0-.05.27-.07.33-.01.2,4.5,0,4.57.07.12,0,.05-.27.07-.33,0-.04-.03-.07-.07-.07Z"/>
        </g>
        <g>
          <path class="cls-3" d="M5.35,25.49h-2.23c-.19.05-.05-1.12-.09-1.19-.09-.2,2.28-.05,2.32-.09.19-.05.05,1.12.09,1.19,0,.05-.04.09-.09.09Z"/>
          <path class="cls-3" d="M7.6,24.21H3.1c-.12,0-.05.27-.07.33-.01.2,4.5,0,4.57.07.12,0,.05-.27.07-.33,0-.04-.03-.07-.07-.07Z"/>
        </g>
        <g>
          <path class="cls-3" d="M24.15,22.23h-2.23c-.19.05-.05-1.12-.09-1.19-.09-.2,2.28-.05,2.32-.09.19-.05.05,1.12.09,1.19,0,.05-.04.09-.09.09Z"/>
          <path class="cls-3" d="M26.4,20.95h-4.5c-.12,0-.05.27-.07.33-.01.2,4.5,0,4.57.07.12,0,.05-.27.07-.33,0-.04-.03-.07-.07-.07Z"/>
        </g>
        <rect class="cls-1" x="18.62" width="10.71" height="10.71" rx="1" ry="1"/>
        <rect class="cls-1" x="33.88" y="6.02" width="10.71" height="10.71" rx="1" ry="1"/>
        <g>
          <path class="cls-3" d="M24.24,6.2h-2.23c-.19.05-.05-1.12-.09-1.19-.09-.2,2.28-.05,2.32-.09.19-.05.05,1.12.09,1.19,0,.05-.04.09-.09.09Z"/>
          <path class="cls-3" d="M26.49,4.92h-4.5c-.12,0-.05.27-.07.33-.01.2,4.5,0,4.57.07.12,0,.05-.27.07-.33,0-.04-.03-.07-.07-.07Z"/>
        </g>
        <g>
          <path class="cls-3" d="M39.61,12.14h-2.23c-.19.05-.05-1.12-.09-1.19-.09-.2,2.28-.05,2.32-.09.19-.05.05,1.12.09,1.19,0,.05-.04.09-.09.09Z"/>
          <path class="cls-3" d="M41.86,10.86h-4.5c-.12,0-.05.27-.07.33-.01.2,4.5,0,4.57.07.12,0,.05-.27.07-.33,0-.04-.03-.07-.07-.07Z"/>
        </g>
        <rect class="cls-1" x="7.33" y="6.02" width="10.71" height="10.71" rx="1" ry="1"/>
        <g>
          <path class="cls-3" d="M12.68,12.14h-2.23c-.19.05-.05-1.12-.09-1.19-.09-.2,2.28-.05,2.32-.09.19-.05.05,1.12.09,1.19,0,.05-.04.09-.09.09Z"/>
          <path class="cls-3" d="M14.93,10.86h-4.5c-.12,0-.05.27-.07.33-.01.2,4.5,0,4.57.07.12,0,.05-.27.07-.33,0-.04-.03-.07-.07-.07Z"/>
        </g>
      </g>
    </g>
  </g>
</svg>