<?xml version="1.0" encoding="UTF-8"?>
<svg id="Calque_2" data-name="Calque 2" xmlns="http://www.w3.org/2000/svg" viewBox="0 0 181.7 113.53">
  <defs>
    <style>
      .cls-1 {
        letter-spacing: 0em;
      }

      .cls-2 {
        letter-spacing: -.02em;
      }

      .cls-3 {
        font-family: Montserrat-Medium, Montserrat;
        font-size: 7.23px;
        font-weight: 500;
      }

      .cls-3, .cls-4 {
        fill: #f7f9f7;
      }

      .cls-5 {
        letter-spacing: 0em;
      }

      .cls-6 {
        letter-spacing: -.01em;
      }

      .cls-7 {
        fill: #1b5e20;
      }

      .cls-7, .cls-4 {
        stroke-width: 0px;
      }
    </style>
  </defs>
  <g id="Calque_1-2" data-name="Calque 1">
    <g>
      <g>
        <text class="cls-3" transform="translate(80.49 94.45)"><tspan x="0" y="0">SMA</tspan><tspan class="cls-1" x="16.68" y="0">R</tspan><tspan x="21.86" y="0">T </tspan><tspan class="cls-6" x="28.05" y="0">L</tspan><tspan x="32.24" y="0">OCKER NE</tspan><tspan class="cls-5" x="71.41" y="0">T</tspan><tspan class="cls-2" x="75.6" y="0">W</tspan><tspan x="83.58" y="0">ORK</tspan></text>
        <g>
          <path class="cls-4" d="M89.93,83.08h-4.26c-.41,0-.77.25-.92.63-.28.6-.5,2.02-1.42,1.94,0,0-2.89,0-2.89,0-.71,0-1.19-.73-.9-1.38l5.6-12.8c.16-.36.51-.59.9-.59h3.61c.39,0,.74.23.9.59l5.6,12.8c.28.65-.19,1.38-.9,1.38h-2.97c-1.45.02-.89-2.59-2.34-2.57ZM88.71,78.16c-.32-.84-1.51-.84-1.84,0-.52,1.75,2.35,1.75,1.84,0Z"/>
          <path class="cls-4" d="M102.73,75.91c.22,2.96,5.94-.43,6.16,2.53.04,1,.12,2.47-1.27,2.49,0,0-3.63,0-3.63,0-.7,0-1.27.57-1.27,1.27v2.19c.02,1.8-2.63,1.16-3.71,1.27-.7,0-1.27-.57-1.27-1.27.78-16.03-3.96-13.31,10.74-13.5,1.39.02,1.31,1.48,1.27,2.49-.12,2.99-6.91-.46-7.03,2.53Z"/>
          <path class="cls-4" d="M117.14,81.94c-1.95.11.18,3.6-1.76,3.71h-3.22c-.49,0-.88-.39-.88-.88v-13.01c0-.49.39-.88.88-.88,4.74-.04,13.11-.94,12.96,5.57.15,3.67-3.13,4.02-2.26,5.41,0,0,1.64,2.41,1.64,2.41.4.59-.02,1.38-.73,1.38h-3.18c-1.22.02-2.23-3.74-3.45-3.71ZM118.07,74.73c-.68-.03-1.83-.1-1.81.88.08.74-.37,2.61.88,2.58,0,0,.93,0,.93,0,2.72.18,2.72-3.64,0-3.46Z"/>
          <path class="cls-4" d="M129.13,70.89c1.38,0,2.49,1.11,2.49,2.49v9.79c0,1.38-1.11,2.49-2.49,2.49-1.38,0-2.49-1.11-2.49-2.49v-9.79c0-1.38,1.11-2.49,2.49-2.49Z"/>
          <path class="cls-4" d="M147.71,81.58c.45,5.32-9.75,3.91-13.46,4.07-.61,0-1.1-.49-1.1-1.1v-12.58c0-.61.49-1.1,1.1-1.1,3.58.1,13.19-1.06,12.77,3.86,0,.88-.29,1.67-.85,2.3-1.21,1.6,1.72,1.87,1.55,4.54ZM138.04,75.46c0,1.26,1.45,1.12,2.32,1.1,1.12,0,1.62-.38,1.62-1.1s-.51-1.1-1.62-1.1c-.87-.02-2.32-.16-2.32,1.1ZM142.68,81.01c0-.76-.55-1.16-1.65-1.16-1,.06-3.11-.41-3,1.22,0,1.5,2.07,1.03,3,1.1,1.1,0,1.65-.4,1.65-1.16Z"/>
          <path class="cls-4" d="M176.73,85.14c-.69-.95-1.75-3.64-3.17-1.92,0,0-1.21,1.91-1.21,1.91-.43.94-3.04.39-3.8.53-.93,0-1.46-1.05-.92-1.8l3.58-4.99c.28-.39.28-.92,0-1.32l-3.42-4.87c-.53-.75,0-1.79.93-1.79h2.8c1.6-.04,2.1,4.35,4.05,2.29,0,0,1.17-1.78,1.17-1.78.43-.89,2.74-.39,3.48-.51.93,0,1.46,1.05.92,1.8l-3.36,4.67c-.28.4-.29.93,0,1.32l3.69,5.18c.54.75,0,1.8-.93,1.8-.78-.16-3.38.42-3.83-.52Z"/>
          <rect class="cls-4" x="149.23" y="70.89" width="16.67" height="14.77" rx="3.1" ry="3.1"/>
          <path class="cls-7" d="M161.06,77.27c-1.75,0-5.25,0-7,0-.3,0-.2.45-.21.63,0,0,0,1.82,0,1.82,0,.12.1.22.22.22h3.41c.12,0,.22-.1.22-.22v-1.6h3.35c.3,0,.2-.45.21-.63,0-.12-.1-.21-.21-.21Z"/>
        </g>
      </g>
      <g>
        <path class="cls-4" d="M28.22,21.25c4.63-3.84,15.24-11.68,21.38-9.23-7.37-1.96-15.67,5.25-21.11,9.54l-.27-.31h0Z"/>
        <path class="cls-4" d="M42.54,7.21c4.49.41,9.09.58,13.39,2.02.38.17.8.36,1.02.73,2.48,6.33,8.72,21.51,16.25,22.2-8.49-1.59-13.31-14.88-16.47-22.01-.17-.35-.57-.5-.92-.65-4.27-1.38-8.86-1.51-13.31-1.87,0,0,.02-.41.02-.41h0Z"/>
        <path class="cls-4" d="M13.44,5.4c1.76.39,3.88-.89,5.31-1.84-1.55,1.16-3.41,2.54-5.46,2.23,0,0,.15-.39.15-.39h0Z"/>
        <path class="cls-4" d="M28.5,2.93l3.31,3.03-.1-.03c2.34-.25,4.71-.26,7.04.12-2.32-.3-4.69-.21-7,.12,0,0-.06,0-.06,0-.05-.04-3.41-2.9-3.46-2.95l.27-.31h0Z"/>
        <rect class="cls-4" x="46.73" y="8.42" width="10.77" height="10.77" rx="1.01" ry="1.01"/>
        <g>
          <path class="cls-7" d="M52.4,14.65h-2.24c-.19.05-.05-1.13-.09-1.19-.09-.2,2.29-.05,2.33-.09.19-.05.05,1.13.09,1.19,0,.05-.04.09-.09.09Z"/>
          <path class="cls-7" d="M54.66,13.37h-4.52c-.12,0-.05.27-.07.34-.01.2,4.52,0,4.59.07.12,0,.05-.27.07-.34,0-.04-.03-.07-.07-.07Z"/>
        </g>
        <path class="cls-4" d="M20.49,97.8c3.72-3.2,3.23-2.34,8.39-2.78,1.43-.13,3.42-1.85,9.15-3.28,0,0,7.34-4.03,8.16-4.79,0,0,.78-1.23-.3-2.67s-10.89-10.9-10.89-10.9l-1.17-8.38h1.44l1.48,7.96s9.31,7.62,10.97,10.02c1.28,1.84.28-14.52.54-13.84l2.04.11v13.39s-.02.36.69,0c1.17-.61,9.44-6.43,9.44-6.43,0,0,.9-.79,1.42-2.53-.74-1.25-.08-2.2,1.16-3.53l1.79.47-2,5.69-11.39,8.33c-.58,4.61.88,3.41,7.02,6.89,0,0,6.38-.04,10.23,3.63l4.15.18,3.62,2.46c-3.88-1.72-3.12-1.64-7.39-1.6-.52.27,1.99,2.77,2.35,3.2-5.35-2.05-.07-3.16-11.46-5.64,0,0-.62.35.37,1.93,1.78,4.64,4.61,1.38,8.67,7.64,0,0-2.25-2.62-5.41-3.04-.58,1.61,1.81,3.25-.83,6.05.51-9.27-2.72-4.73-5.36-12.61l-5.59-2.71c-1.37,7.9,7.69,8.79,7.27,15.94,0,0-1.59-4.42-3.66-5.61,0,0-.71-.67-.6,1.77l.09,5.48s-2.9,3.38-2.99,4.92c0,0-1.17-.53,1.54-5.34l-.07-7.64-3.43-5.13s-.14-.39-.48.02c0,0-3.2,3.63-3.45,4.12,0,0-.48,4.83-.3,5.84,0,0-.87,2.23-1.54,2.58l-.39,4.72s-.6-4.92-.51-5.27c0,0,.85-1.75,1.04-2.25l-.05-3.91s.07-1.2-.58-.94c0,0-1.93,1.15-2.12,1.79,0,0-.53,1.52-.92,1.82-1.09,1.04-2.6.14-3.93,3.73,0,0-.71-1.66,1.24-3.63,2.97-1.18,1.46-2.79,4.16-4.39,0,0,2.78-1.52,5.31-4.83l.09-4.46c-9.83,1.53-4.84,9.34-14.4,11.59,0,0-1.77.58-2.46,2.19-.61-3.82,5.5-1.68,7.5-9.34,0,0,.69-1.5.02-1.01,0,0-3.27,1.13-5.68,1.77-3.16.12-2.08,3.16-6.9,4.92,0,0,1.75-1.82,2.83-3.4,0,0,.58-.55-.14-.64l-4.12.05-3.69,1.34Z"/>
        <path class="cls-4" d="M47.99,60.87c3.44-3.98,7.49-7.54,12.24-9.88-4.65,2.44-8.6,6.09-11.91,10.13l-.32-.26h0Z"/>
        <path class="cls-4" d="M31.73,56.72c-2.6-3.23-2.13-8.12,1.33-10.52-3.29,2.45-3.65,7.2-1.02,10.26,0,0-.32.26-.32.26h0Z"/>
        <path class="cls-4" d="M19.99,38.72c4.76,1.18,10.22,3.74,11.9,8.71-1.81-4.9-7.21-7.24-11.97-8.3l.08-.41h0Z"/>
        <path class="cls-4" d="M12.62,40.77c-3.1-2.62-7.15-6.75-7.67-10.92.84,4.45,4.57,7.83,7.92,10.59l-.25.33h0Z"/>
        <path class="cls-4" d="M1.64,21.03c.78-3.74,2.78-10.5,6.96-11.51-4.52,1.65-5.63,7.39-6.55,11.58l-.41-.07h0Z"/>
        <path class="cls-4" d="M65.39,31.83c.29.03,13.91,1.59,14.19,1.62-2.5,2.84-11.28,11.5-10.83,15-.39-3.67,7.95-11.98,10.5-14.99l.07.2-13.97-1.42.04-.41h0Z"/>
        <path class="cls-4" d="M9.54,25.86c3.98-3.71,10.15-6.95,14.62-2.16,2.2,2.42,3.92,5.24,6.49,7.32,6.95,5.24,15.27,8.38,23.2,11.85-7.96-3.42-16.33-6.49-23.33-11.7-2.58-2.05-4.35-4.88-6.56-7.28-4.32-4.61-10.35-1.35-14.12,2.25l-.29-.29h0Z"/>
        <path class="cls-4" d="M39.65,48.43c.54,3.47.72,8.21,3.93,10.32,4.89,2.77,10,5.16,15.04,7.64-5.09-2.4-10.23-4.72-15.17-7.42-.83-.42-1.46-1.1-1.91-1.9-1.44-2.63-1.94-5.65-2.31-8.6l.41-.04Z"/>
        <path class="cls-4" d="M48.28,31.46c5.3,4.17,13.56,11.38,15.73,17.79-2.88-7.12-10.07-12.81-15.98-17.46l.25-.33h0Z"/>
        <path class="cls-4" d="M25.64,9.37c7.03,6.67,14.11,13.37,22.02,18.99-8-5.52-15.18-12.12-22.31-18.7l.29-.3h0Z"/>
        <path class="cls-4" d="M34.2,34.13c.69.06,1.42-.07,2.09-.24,1.14-.31,2.29-.85,3.28-1.48,4.96-3.15,8.34-8.19,11.32-13.17-2.65,4.64-5.67,9.3-9.95,12.58-1.95,1.46-4.28,2.81-6.8,2.72,0,0,.06-.41.06-.41h0Z"/>
        <path class="cls-4" d="M79.48,38.63c-6.63,8.48-13.99,19.76-15.48,30.58,1.64-11.53,8.31-21.68,15.16-30.84l.32.26h0Z"/>
        <rect class="cls-4" x="56.87" y="26.8" width="10.77" height="10.77" rx="1.01" ry="1.01"/>
        <rect class="cls-4" x="10.77" y="32.03" width="10.77" height="10.77" rx="1.01" ry="1.01"/>
        <rect class="cls-4" x="31.02" y="40.23" width="10.77" height="10.77" rx="1.01" ry="1.01"/>
        <rect class="cls-4" x="71.94" y="29.84" width="10.77" height="10.77" rx="1.01" ry="1.01"/>
        <rect class="cls-4" x="18.9" y="16.26" width="10.77" height="10.77" rx="1.01" ry="1.01"/>
        <rect class="cls-4" x="43.07" y="23.34" width="10.77" height="10.77" rx="1.01" ry="1.01"/>
        <rect class="cls-4" x="44.82" y="40.63" width="10.77" height="10.77" rx="1.01" ry="1.01"/>
        <rect class="cls-4" x="43.54" y="59.41" width="10.77" height="10.77" rx="1.01" ry="1.01"/>
        <rect class="cls-4" x="26.34" y="28.16" width="10.77" height="10.77" rx="1.01" ry="1.01"/>
        <rect class="cls-4" x="57.61" y="61" width="10.77" height="10.77" rx="1.01" ry="1.01"/>
        <rect class="cls-4" x="58.62" y="46.19" width="10.77" height="10.77" rx="1.01" ry="1.01"/>
        <rect class="cls-4" x="29.47" y="54.89" width="10.77" height="10.77" rx="1.01" ry="1.01"/>
        <rect class="cls-4" y="19.39" width="10.77" height="10.77" rx="1.01" ry="1.01"/>
        <g>
          <path class="cls-7" d="M63.33,67.02h-2.24c-.19.05-.05-1.13-.09-1.19-.09-.2,2.29-.05,2.33-.09.19-.05.05,1.13.09,1.19,0,.05-.04.09-.09.09Z"/>
          <path class="cls-7" d="M65.59,65.74h-4.52c-.12,0-.05.27-.07.34-.01.2,4.52,0,4.59.07.12,0,.05-.27.07-.34,0-.04-.03-.07-.07-.07Z"/>
        </g>
        <g>
          <path class="cls-7" d="M49.27,65.22h-2.24c-.19.05-.05-1.13-.09-1.19-.09-.2,2.29-.05,2.33-.09.19-.05.05,1.13.09,1.19,0,.05-.04.09-.09.09Z"/>
          <path class="cls-7" d="M51.53,63.93h-4.52c-.12,0-.05.27-.07.34-.01.2,4.52,0,4.59.07.12,0,.05-.27.07-.34,0-.04-.03-.07-.07-.07Z"/>
        </g>
        <g>
          <path class="cls-7" d="M34.85,60.92h-2.24c-.19.05-.05-1.13-.09-1.19-.09-.2,2.29-.05,2.33-.09.19-.05.05,1.13.09,1.19,0,.05-.04.09-.09.09Z"/>
          <path class="cls-7" d="M37.11,59.63h-4.52c-.12,0-.05.27-.07.34-.01.2,4.52,0,4.59.07.12,0,.05-.27.07-.34,0-.04-.03-.07-.07-.07Z"/>
        </g>
        <g>
          <path class="cls-7" d="M36.7,46.01h-2.24c-.19.05-.05-1.13-.09-1.19-.09-.2,2.29-.05,2.33-.09.19-.05.05,1.13.09,1.19,0,.05-.04.09-.09.09Z"/>
          <path class="cls-7" d="M38.96,44.73h-4.52c-.12,0-.05.27-.07.34-.01.2,4.52,0,4.59.07.12,0,.05-.27.07-.34,0-.04-.03-.07-.07-.07Z"/>
        </g>
        <g>
          <path class="cls-7" d="M50.48,46.65h-2.24c-.19.05-.05-1.13-.09-1.19-.09-.2,2.29-.05,2.33-.09.19-.05.05,1.13.09,1.19,0,.05-.04.09-.09.09Z"/>
          <path class="cls-7" d="M52.75,45.37h-4.52c-.12,0-.05.27-.07.34-.01.2,4.52,0,4.59.07.12,0,.05-.27.07-.34,0-.04-.03-.07-.07-.07Z"/>
        </g>
        <g>
          <path class="cls-7" d="M64.54,52.46h-2.24c-.19.05-.05-1.13-.09-1.19-.09-.2,2.29-.05,2.33-.09.19-.05.05,1.13.09,1.19,0,.05-.04.09-.09.09Z"/>
          <path class="cls-7" d="M66.8,51.18h-4.52c-.12,0-.05.27-.07.34-.01.2,4.52,0,4.59.07.12,0,.05-.27.07-.34,0-.04-.03-.07-.07-.07Z"/>
        </g>
        <g>
          <path class="cls-7" d="M62.62,32.88h-2.24c-.19.05-.05-1.13-.09-1.19-.09-.2,2.29-.05,2.33-.09.19-.05.05,1.13.09,1.19,0,.05-.04.09-.09.09Z"/>
          <path class="cls-7" d="M64.88,31.6h-4.52c-.12,0-.05.27-.07.34-.01.2,4.52,0,4.59.07.12,0,.05-.27.07-.34,0-.04-.03-.07-.07-.07Z"/>
        </g>
        <g>
          <path class="cls-7" d="M48.36,29.26h-2.24c-.19.05-.05-1.13-.09-1.19-.09-.2,2.29-.05,2.33-.09.19-.05.05,1.13.09,1.19,0,.05-.04.09-.09.09Z"/>
          <path class="cls-7" d="M50.63,27.98h-4.52c-.12,0-.05.27-.07.34-.01.2,4.52,0,4.59.07.12,0,.05-.27.07-.34,0-.04-.03-.07-.07-.07Z"/>
        </g>
        <g>
          <path class="cls-7" d="M31.89,34.23h-2.24c-.19.05-.05-1.13-.09-1.19-.09-.2,2.29-.05,2.33-.09.19-.05.05,1.13.09,1.19,0,.05-.04.09-.09.09Z"/>
          <path class="cls-7" d="M34.15,32.95h-4.52c-.12,0-.05.27-.07.34-.01.2,4.52,0,4.59.07.12,0,.05-.27.07-.34,0-.04-.03-.07-.07-.07Z"/>
        </g>
        <g>
          <path class="cls-7" d="M16.15,37.77h-2.24c-.19.05-.05-1.13-.09-1.19-.09-.2,2.29-.05,2.33-.09.19-.05.05,1.13.09,1.19,0,.05-.04.09-.09.09Z"/>
          <path class="cls-7" d="M18.41,36.49h-4.52c-.12,0-.05.27-.07.34-.01.2,4.52,0,4.59.07.12,0,.05-.27.07-.34,0-.04-.03-.07-.07-.07Z"/>
        </g>
        <g>
          <path class="cls-7" d="M5.38,25.62h-2.24c-.19.05-.05-1.13-.09-1.19-.09-.2,2.29-.05,2.33-.09.19-.05.05,1.13.09,1.19,0,.05-.04.09-.09.09Z"/>
          <path class="cls-7" d="M7.64,24.34H3.12c-.12,0-.05.27-.07.34-.01.2,4.52,0,4.59.07.12,0,.05-.27.07-.34,0-.04-.03-.07-.07-.07Z"/>
        </g>
        <g>
          <path class="cls-7" d="M24.28,22.35h-2.24c-.19.05-.05-1.13-.09-1.19-.09-.2,2.29-.05,2.33-.09.19-.05.05,1.13.09,1.19,0,.05-.04.09-.09.09Z"/>
          <path class="cls-7" d="M26.54,21.07h-4.52c-.12,0-.05.27-.07.34-.01.2,4.52,0,4.59.07.12,0,.05-.27.07-.34,0-.04-.03-.07-.07-.07Z"/>
        </g>
        <g>
          <path class="cls-7" d="M77.75,35.87h-2.24c-.19.05-.05-1.13-.09-1.19-.09-.2,2.29-.05,2.33-.09.19-.05.05,1.13.09,1.19,0,.05-.04.09-.09.09Z"/>
          <path class="cls-7" d="M80.01,34.59h-4.52c-.12,0-.05.27-.07.34-.01.2,4.52,0,4.59.07.12,0,.05-.27.07-.34,0-.04-.03-.07-.07-.07Z"/>
        </g>
        <rect class="cls-4" x="18.72" width="10.77" height="10.77" rx="1.01" ry="1.01"/>
        <rect class="cls-4" x="34.06" y="6.05" width="10.77" height="10.77" rx="1.01" ry="1.01"/>
        <g>
          <path class="cls-7" d="M24.37,6.23h-2.24c-.19.05-.05-1.13-.09-1.19-.09-.2,2.29-.05,2.33-.09.19-.05.05,1.13.09,1.19,0,.05-.04.09-.09.09Z"/>
          <path class="cls-7" d="M26.63,4.95h-4.52c-.12,0-.05.27-.07.34-.01.2,4.52,0,4.59.07.12,0,.05-.27.07-.34,0-.04-.03-.07-.07-.07Z"/>
        </g>
        <g>
          <path class="cls-7" d="M39.82,12.2h-2.24c-.19.05-.05-1.13-.09-1.19-.09-.2,2.29-.05,2.33-.09.19-.05.05,1.13.09,1.19,0,.05-.04.09-.09.09Z"/>
          <path class="cls-7" d="M42.08,10.92h-4.52c-.12,0-.05.27-.07.34-.01.2,4.52,0,4.59.07.12,0,.05-.27.07-.34,0-.04-.03-.07-.07-.07Z"/>
        </g>
        <rect class="cls-4" x="7.37" y="6.05" width="10.77" height="10.77" rx="1.01" ry="1.01"/>
        <g>
          <path class="cls-7" d="M12.75,12.2h-2.24c-.19.05-.05-1.13-.09-1.19-.09-.2,2.29-.05,2.33-.09.19-.05.05,1.13.09,1.19,0,.05-.04.09-.09.09Z"/>
          <path class="cls-7" d="M15.01,10.92h-4.52c-.12,0-.05.27-.07.34-.01.2,4.52,0,4.59.07.12,0,.05-.27.07-.34,0-.04-.03-.07-.07-.07Z"/>
        </g>
      </g>
    </g>
  </g>
</svg>